<?xml version="1.0" encoding="utf-8"?>
<!-- Generator: Adobe Illustrator 19.1.0, SVG Export Plug-In . SVG Version: 6.00 Build 0)  -->
<svg version="1.1" id="Layer_1" xmlns="http://www.w3.org/2000/svg" xmlns:xlink="http://www.w3.org/1999/xlink" x="0px" y="0px"
	 viewBox="0 0 32.8 71.6" style="enable-background:new 0 0 32.8 71.6;" xml:space="preserve">
<style type="text/css">
	.Arched_x0020_Green{fill:url(#SVGID_1_);stroke:#FFFFFF;stroke-width:0.25;stroke-miterlimit:1;}
	.st0{fill:none;stroke:#000000;stroke-width:0.5;}
	.st1{opacity:0.49;}
	.st2{fill:#FFFFFF;}
	.st3{stroke:#000000;stroke-width:7;stroke-dasharray:0.75,0.9;}
	.st4{fill:url(#);}
	.st5{fill:none;stroke:#000000;stroke-miterlimit:10;}
	.st6{fill:none;stroke:#000000;stroke-width:2;stroke-miterlimit:10;}
	.st7{fill:none;stroke:#000000;stroke-width:3;}
	.st8{fill:none;stroke:#000000;stroke-width:4;stroke-miterlimit:10;}
</style>
<linearGradient id="SVGID_1_" gradientUnits="userSpaceOnUse" x1="1579.4072" y1="1172.7192" x2="1580.1144" y2="1172.0121">
	<stop  offset="0" style="stop-color:#20AC4B"/>
	<stop  offset="0.9831" style="stop-color:#19361A"/>
</linearGradient>
<path class="st2" d="M17.4,31.8h15.4V54c0,11.2-5.6,17.6-16.4,17.6C5.6,71.6,0,65.2,0,54V17.6C0,6.4,5.6,0,16.4,0
	c10.8,0,16.4,6.4,16.4,17.6v6.8H22.4v-7.5c0-5-2.2-6.9-5.7-6.9c-3.5,0-5.7,1.9-5.7,6.9v37.8c0,5,2.2,6.8,5.7,6.8
	c3.5,0,5.7-1.8,5.7-6.8V41.8h-5V31.8z"/>
</svg>
