<?xml version="1.0" encoding="utf-8"?>
<!-- Generator: Adobe Illustrator 19.1.0, SVG Export Plug-In . SVG Version: 6.00 Build 0)  -->
<svg version="1.1" id="Layer_1" xmlns="http://www.w3.org/2000/svg" xmlns:xlink="http://www.w3.org/1999/xlink" x="0px" y="0px"
	 viewBox="0 0 34.2 70" style="enable-background:new 0 0 34.2 70;" xml:space="preserve">
<style type="text/css">
	.Arched_x0020_Green{fill:url(#SVGID_1_);stroke:#FFFFFF;stroke-width:0.25;stroke-miterlimit:1;}
	.st0{fill:none;stroke:#000000;stroke-width:0.5;}
	.st1{opacity:0.49;}
	.st2{fill:#FFFFFF;}
	.st3{stroke:#000000;stroke-width:7;stroke-dasharray:0.75,0.9;}
	.st4{fill:url(#);}
	.st5{fill:none;stroke:#000000;stroke-miterlimit:10;}
	.st6{fill:none;stroke:#000000;stroke-width:2;stroke-miterlimit:10;}
	.st7{fill:none;stroke:#000000;stroke-width:3;}
	.st8{fill:none;stroke:#000000;stroke-width:4;stroke-miterlimit:10;}
</style>
<linearGradient id="SVGID_1_" gradientUnits="userSpaceOnUse" x1="1765.8042" y1="1171.9194" x2="1766.5114" y2="1171.2123">
	<stop  offset="0" style="stop-color:#20AC4B"/>
	<stop  offset="0.9831" style="stop-color:#19361A"/>
</linearGradient>
<path class="st2" d="M23,70c-0.6-1.8-1-2.9-1-8.6v-11c0-6.5-2.2-8.9-7.2-8.9H11V70H0V0h16.6C28,0,32.9,5.3,32.9,16.1v5.5
	c0,7.2-2.3,11.9-7.2,14.2c5.5,2.3,7.3,7.6,7.3,14.9v10.8c0,3.4,0.1,5.9,1.2,8.5H23z M11,10v21.5h4.3c4.1,0,6.6-1.8,6.6-7.4v-6.9
	c0-5-1.7-7.2-5.6-7.2H11z"/>
</svg>
